<?xml version="1.0" encoding="UTF-8" standalone="no"?>
<!DOCTYPE svg PUBLIC "-//W3C//DTD SVG 1.1//EN"
 "http://www.w3.org/Graphics/SVG/1.1/DTD/svg11.dtd">
<!-- Generated by graphviz version 2.38.0 (20140413.2041)
 -->
<!-- Title: supervised Pages: 1 -->
<svg width="253pt" height="44pt"
 viewBox="0.00 0.00 253.00 44.00" xmlns="http://www.w3.org/2000/svg" xmlns:xlink="http://www.w3.org/1999/xlink">
<g id="graph0" class="graph" transform="scale(1 1) rotate(0) translate(4 40)">
<title>supervised</title>
<!-- X -->
<g id="node1" class="node"><title>X</title>
<ellipse fill="#aaffff" stroke="black" cx="27" cy="-18" rx="27" ry="18"/>
<text text-anchor="middle" x="27" y="-14.3" font-family="Times,serif" font-size="14.00">X</text>
</g>
<!-- f -->
<g id="node2" class="node"><title>f</title>
<polygon fill="#aaaaff" stroke="black" points="155,-36 90,-36 90,-0 155,-0 155,-36"/>
<text text-anchor="middle" x="122.5" y="-14.3" font-family="Times,serif" font-size="14.00">Function</text>
</g>
<!-- X&#45;&gt;f -->
<g id="edge1" class="edge"><title>X&#45;&gt;f</title>
<path fill="none" stroke="black" d="M54.045,-18C62.0455,-18 71.0599,-18 79.8327,-18"/>
<polygon fill="black" stroke="black" points="79.945,-21.5001 89.945,-18 79.9449,-14.5001 79.945,-21.5001"/>
</g>
<!-- Y -->
<g id="node3" class="node"><title>Y</title>
<ellipse fill="#aaffaa" stroke="black" cx="218" cy="-18" rx="27" ry="18"/>
<text text-anchor="middle" x="218" y="-14.3" font-family="Times,serif" font-size="14.00">Y</text>
</g>
<!-- f&#45;&gt;Y -->
<g id="edge2" class="edge"><title>f&#45;&gt;Y</title>
<path fill="none" stroke="black" d="M155.155,-18C163.441,-18 172.436,-18 180.933,-18"/>
<polygon fill="black" stroke="black" points="180.971,-21.5001 190.971,-18 180.971,-14.5001 180.971,-21.5001"/>
</g>
</g>
</svg>
