<?xml version="1.0" encoding="UTF-8" standalone="no"?>
<!DOCTYPE svg PUBLIC "-//W3C//DTD SVG 1.1//EN"
 "http://www.w3.org/Graphics/SVG/1.1/DTD/svg11.dtd">
<!-- Generated by graphviz version 2.38.0 (20140413.2041)
 -->
<!-- Title: supervised Pages: 1 -->
<svg width="246pt" height="44pt"
 viewBox="0.00 0.00 246.00 44.00" xmlns="http://www.w3.org/2000/svg" xmlns:xlink="http://www.w3.org/1999/xlink">
<g id="graph0" class="graph" transform="scale(1 1) rotate(0) translate(4 40)">
<title>supervised</title>
<!-- Q -->
<g id="node1" class="node"><title>Q</title>
<ellipse fill="#aaffff" stroke="black" cx="27" cy="-18" rx="27" ry="18"/>
<text text-anchor="middle" x="27" y="-14.3" font-family="Times,serif" font-size="14.00">Q</text>
</g>
<!-- f -->
<g id="node2" class="node"><title>f</title>
<polygon fill="#aaaaff" stroke="black" points="148,-36 90,-36 90,-0 148,-0 148,-36"/>
<text text-anchor="middle" x="119" y="-14.3" font-family="Times,serif" font-size="14.00">Student</text>
</g>
<!-- Q&#45;&gt;f -->
<g id="edge1" class="edge"><title>Q&#45;&gt;f</title>
<path fill="none" stroke="black" d="M54.0317,-18C62.0039,-18 70.9483,-18 79.5645,-18"/>
<polygon fill="black" stroke="black" points="79.8244,-21.5001 89.8243,-18 79.8243,-14.5001 79.8244,-21.5001"/>
</g>
<!-- A -->
<g id="node3" class="node"><title>A</title>
<ellipse fill="#aaffaa" stroke="black" cx="211" cy="-18" rx="27" ry="18"/>
<text text-anchor="middle" x="211" y="-14.3" font-family="Times,serif" font-size="14.00">A</text>
</g>
<!-- f&#45;&gt;A -->
<g id="edge2" class="edge"><title>f&#45;&gt;A</title>
<path fill="none" stroke="black" d="M148.477,-18C156.443,-18 165.211,-18 173.57,-18"/>
<polygon fill="black" stroke="black" points="173.847,-21.5001 183.847,-18 173.847,-14.5001 173.847,-21.5001"/>
</g>
</g>
</svg>
